<svg width="154" height="32" viewBox="0 0 154 32" fill="none" xmlns="http://www.w3.org/2000/svg">
<g id="Logo" clip-path="url(#clip0_155_18681)">
<path id="Vector" d="M10.6149 14.8383L2.64844 9.02157V2.65397L10.6214 8.50633L21.9242 0V6.60415L10.6149 14.8383Z" fill="#29D19E"/>
<path id="Vector_2" d="M25.5079 16.4713C25.6434 16.4709 25.7775 16.4971 25.9028 16.5485C26.028 16.5999 26.1419 16.6755 26.238 16.7709C26.334 16.8662 26.4103 16.9796 26.4625 17.1045C26.5147 17.2293 26.5418 17.3632 26.5423 17.4986V19.7021C26.5423 20.2499 26.3248 20.7752 25.9375 21.1629C25.5503 21.5505 25.025 21.7687 24.4769 21.7696H16.9417C16.806 21.7696 16.6716 21.7963 16.5463 21.8483C16.421 21.9003 16.3072 21.9765 16.2114 22.0725C16.1156 22.1686 16.0398 22.2825 15.9881 22.4079C15.9365 22.5333 15.9102 22.6677 15.9106 22.8033V31.355C15.9106 31.4906 15.8838 31.6248 15.8318 31.7501C15.7798 31.8753 15.7035 31.989 15.6074 32.0848C15.5114 32.1805 15.3973 32.2563 15.2718 32.3079C15.1464 32.3595 15.0119 32.3859 14.8763 32.3855H12.6682C12.1202 32.3855 11.5945 32.1681 11.2066 31.7811C10.8188 31.394 10.6005 30.869 10.5996 30.3212V17.4986C10.5996 17.2244 10.7086 16.9615 10.9026 16.7676C11.0965 16.5738 11.3596 16.4648 11.6339 16.4648L25.5079 16.4713Z" fill="#002FE6"/>
<path id="Vector_3" d="M7.82056 16.471C8.09375 16.471 8.35586 16.579 8.54964 16.7715C8.74343 16.964 8.85315 17.2252 8.85487 17.4983V19.7018C8.85487 20.2501 8.63692 20.776 8.24898 21.1637C7.86104 21.5514 7.33488 21.7692 6.78625 21.7692H1.03431C0.760555 21.7692 0.497964 21.6608 0.304087 21.4676C0.110209 21.2745 0.000858167 21.0124 0 20.7388L0 18.5352C0 17.9869 0.217943 17.461 0.605885 17.0733C0.993827 16.6856 1.51999 16.4678 2.06862 16.4678L7.82056 16.471Z" fill="#002FE6"/>
<path id="Vector_4" d="M33.7207 27.5018V5.0127H39.4435L45.5034 22.0578L51.5018 5.0127H57.2278V27.5018H53.0646V10.6512L47.1959 27.5018H43.772L37.9066 10.6512V27.5018H33.7207Z" fill="#12205C"/>
<path id="Vector_5" d="M68.3 10.2501C69.4823 10.2243 70.6575 10.4387 71.7544 10.8805C72.8512 11.3222 73.8469 11.982 74.681 12.8199C75.5224 13.6326 76.1871 14.6101 76.6334 15.6912C77.0797 16.7724 77.2981 17.9339 77.2748 19.1032C77.2891 20.2626 77.0638 21.4124 76.613 22.4808C76.1622 23.5491 75.4957 24.513 74.655 25.312C72.9593 26.9658 70.6839 27.8914 68.3146 27.8914C65.9453 27.8914 63.6699 26.9658 61.9742 25.312C61.1264 24.5113 60.4541 23.5435 59.9998 22.4697C59.5455 21.396 59.3191 20.2397 59.3349 19.074C59.3178 17.9099 59.5416 16.7549 59.9925 15.6814C60.4433 14.6079 61.1114 13.6392 61.9547 12.8361C62.7812 11.9969 63.7701 11.3348 64.861 10.8902C65.9519 10.4457 67.1221 10.2279 68.3 10.2501ZM68.3 13.9605C67.6523 13.9549 67.0105 14.0846 66.4159 14.3413C65.8213 14.598 65.2868 14.976 64.8469 15.4511C64.3778 15.9289 64.0088 16.4954 63.7616 17.1175C63.5144 17.7396 63.3939 18.4048 63.4073 19.074C63.3957 19.7411 63.517 20.4038 63.7641 21.0236C64.0113 21.6433 64.3794 22.2078 64.8469 22.684C65.2954 23.1552 65.8351 23.5303 66.4332 23.7867C67.0312 24.043 67.6752 24.1752 68.3259 24.1752C68.9767 24.1752 69.6207 24.043 70.2187 23.7867C70.8168 23.5303 71.3565 23.1552 71.805 22.684C72.2741 22.2062 72.6431 21.6397 72.8903 21.0176C73.1375 20.3955 73.2579 19.7303 73.2446 19.0611C73.2579 18.3918 73.1375 17.7267 72.8903 17.1046C72.6431 16.4825 72.2741 15.9159 71.805 15.4382C71.3564 14.9609 70.8127 14.5829 70.2091 14.3284C69.6054 14.0739 68.9551 13.9486 68.3 13.9605Z" fill="#12205C"/>
<path id="Vector_6" d="M96.9639 10.6449V27.4955H93.2481V25.3114C92.5645 26.1395 91.7138 26.8141 90.7515 27.2914C89.7728 27.7176 88.7126 27.9244 87.6454 27.8973C85.1682 27.8973 83.1331 27.071 81.54 25.4183C79.9469 23.7657 79.1504 21.6712 79.1504 19.135C79.1504 16.5599 79.9577 14.4341 81.5724 12.7577C83.1871 11.0813 85.232 10.2452 87.707 10.2495C88.7999 10.2164 89.8867 10.4233 90.891 10.8555C91.8335 11.3308 92.6434 12.0322 93.2481 12.897V10.6449H96.9639ZM88.1479 13.9599C87.4837 13.937 86.8223 14.0554 86.2074 14.3074C85.5925 14.5593 85.0382 14.9391 84.5813 15.4214C83.667 16.3978 83.2087 17.666 83.2066 19.2257C83.1794 19.8862 83.2873 20.5452 83.5237 21.1626C83.7601 21.7799 84.1199 22.3426 84.5813 22.8162C85.5 23.73 86.7116 24.1869 88.216 24.1869C89.7205 24.1869 90.9093 23.7203 91.7826 22.787C92.2375 22.2976 92.5907 21.7227 92.8216 21.0958C93.0526 20.4689 93.1568 19.8024 93.1282 19.135C93.1514 18.4537 93.039 17.7746 92.7974 17.1371C92.5559 16.4996 92.19 15.9164 91.721 15.4214C91.2612 14.941 90.7055 14.5627 90.09 14.3109C89.4744 14.0591 88.8127 13.9395 88.1479 13.9599Z" fill="#12205C"/>
<path id="Vector_7" d="M133.743 10.6449V27.4955H130.018V25.3114C129.334 26.1395 128.483 26.8142 127.521 27.2914C126.542 27.7173 125.482 27.9241 124.415 27.8974C121.938 27.8974 119.903 27.071 118.31 25.4184C116.716 23.7657 115.92 21.6713 115.92 19.135C115.92 16.5599 116.726 14.4341 118.339 12.7577C119.951 11.0813 121.997 10.2452 124.476 10.2496C125.568 10.2163 126.654 10.4232 127.657 10.8555C128.601 11.3307 129.412 12.0321 130.018 12.897V10.6449H133.743ZM124.927 13.9599C124.263 13.9368 123.601 14.0551 122.987 14.3071C122.372 14.5591 121.817 14.9389 121.361 15.4214C120.431 16.3979 119.966 17.666 119.966 19.2258C119.939 19.8862 120.047 20.5453 120.284 21.1626C120.52 21.78 120.88 22.3426 121.341 22.8162C122.255 23.7301 123.467 24.187 124.976 24.187C126.485 24.187 127.673 23.7203 128.542 22.7871C128.996 22.2969 129.348 21.7219 129.579 21.0951C129.809 20.4683 129.913 19.8022 129.885 19.135C129.909 18.4539 129.797 17.7749 129.556 17.1374C129.315 16.4998 128.949 15.9166 128.481 15.4214C128.023 14.9438 127.47 14.5672 126.858 14.3155C126.247 14.0638 125.589 13.9427 124.927 13.9599Z" fill="#12205C"/>
<path id="Vector_8" d="M153.6 5.01301V27.5021H149.885V25.3115C148.322 27.0398 146.464 27.9039 144.311 27.9039C143.183 27.9271 142.063 27.7115 141.024 27.2714C139.985 26.8313 139.051 26.1767 138.283 25.3504C137.482 24.5115 136.855 23.5224 136.438 22.4401C136.021 21.3578 135.823 20.2037 135.855 19.0444C135.855 16.5254 136.661 14.4299 138.274 12.7578C139.044 11.9426 139.977 11.2982 141.013 10.8661C142.048 10.4341 143.163 10.2241 144.285 10.2497C145.311 10.2339 146.332 10.3839 147.31 10.6936C148.17 10.972 148.942 11.4702 149.551 12.1389V5.00977L153.6 5.01301ZM144.846 13.8401C144.189 13.8318 143.538 13.9554 142.93 14.2036C142.322 14.4518 141.771 14.8196 141.308 15.2852C140.845 15.7507 140.481 16.3044 140.236 16.9135C139.992 17.5225 139.872 18.1744 139.885 18.8305C139.869 19.5329 139.991 20.2317 140.245 20.8867C140.5 21.5418 140.881 22.1403 141.367 22.6478C141.824 23.1452 142.381 23.5396 143.002 23.805C143.623 24.0704 144.294 24.2007 144.969 24.1871C145.624 24.1972 146.274 24.0684 146.876 23.8092C147.478 23.55 148.018 23.1664 148.461 22.6835C149.407 21.6879 149.918 20.3583 149.885 18.9861C149.906 18.3071 149.789 17.6308 149.542 16.9981C149.295 16.3654 148.921 15.7894 148.445 15.3049C147.981 14.8263 147.423 14.4491 146.805 14.197C146.188 13.9449 145.525 13.8234 144.859 13.8401H144.846Z" fill="#12205C"/>
<path id="Vector_9" d="M104.34 27.3822V5.00977H100.183V27.3822H104.34Z" fill="#12205C"/>
<path id="Vector_10" d="M71.6551 5.58005C71.3309 7.41417 69.9172 8.43169 68.0561 8.41873L62.168 8.37984V6.8406L65.5465 6.8082C65.2329 6.14994 65.1288 5.41139 65.2482 4.69215C65.6146 2.69924 67.2714 1.52941 69.2039 1.88587C70.9612 2.21316 71.9793 3.80749 71.6551 5.58005ZM70.0663 5.31757C70.1106 5.10805 70.1107 4.8916 70.0665 4.68206C70.0223 4.47252 69.9349 4.27449 69.8097 4.10065C69.6846 3.92681 69.5246 3.78097 69.3399 3.67246C69.1552 3.56395 68.9498 3.49516 68.737 3.47048C67.787 3.29549 66.9504 3.92739 66.7527 5.00324C66.656 5.62785 66.7847 6.26646 67.1158 6.80496H67.9685C69.2039 6.76607 69.8848 6.26703 70.0599 5.31757H70.0663Z" fill="#12205C"/>
<path id="Vector_11" d="M105.045 18.173L109.785 11.6855H114.979L110.204 18.1763L117.142 27.3826H111.757L105.045 18.173Z" fill="#12205C"/>
</g>
<defs>
<clipPath id="clip0_155_18681">
<rect width="153.6" height="32" fill="white"/>
</clipPath>
</defs>
</svg>
