<svg width="78" height="130" viewBox="0 0 78 130" fill="none" xmlns="http://www.w3.org/2000/svg">
<g id="Group 1000001859" opacity="0.7">
<path id="Vector" d="M45.2192 59.7801L11.2832 36.7042V11.4428L45.2469 34.6601L93.3955 0.914062V27.1139L45.2192 59.7801Z" fill="#29D19E" fill-opacity="0.3"/>
<path id="Vector_2" d="M108.66 66.2601C109.237 66.2584 109.808 66.3625 110.342 66.5663C110.875 66.7702 111.361 67.0699 111.77 67.4484C112.179 67.8268 112.504 68.2765 112.726 68.7719C112.949 69.2672 113.064 69.7985 113.066 70.3353V79.0772C113.066 81.2502 112.139 83.3345 110.49 84.8723C108.84 86.41 106.602 87.2757 104.268 87.2791H72.1686C71.5906 87.2791 71.0184 87.3852 70.4846 87.5915C69.9508 87.7977 69.466 88.1 69.0579 88.481C68.6499 88.862 68.3267 89.3142 68.1067 89.8116C67.8868 90.3091 67.7746 90.8421 67.7764 91.38V125.306C67.7764 125.844 67.6623 126.377 67.4407 126.874C67.2191 127.37 66.8944 127.822 66.485 128.201C66.0757 128.581 65.5899 128.882 65.0554 129.087C64.5209 129.291 63.9483 129.396 63.3704 129.394H53.9644C51.6297 129.394 49.3904 128.532 47.7382 126.996C46.086 125.461 45.156 123.378 45.1523 121.205V70.3353C45.1523 69.2477 45.6165 68.2046 46.4428 67.4355C47.2691 66.6664 48.3898 66.2344 49.5584 66.2344L108.66 66.2601Z" fill="#002FE6" fill-opacity="0.3"/>
<path id="Vector_3" d="M33.3145 66.257C34.4783 66.257 35.5948 66.6855 36.4203 67.449C37.2458 68.2126 37.7132 69.2491 37.7205 70.3322V79.0741C37.7205 81.2494 36.7921 83.3355 35.1395 84.8737C33.487 86.4119 31.2456 87.276 28.9085 87.276H4.40602C3.23986 87.276 2.12126 86.8457 1.29537 86.0794C0.469474 85.3131 0.00365568 84.2733 0 83.1879L0 74.446C0 72.2708 0.928409 70.1846 2.58099 68.6464C4.23357 67.1083 6.47495 66.2441 8.81205 66.2441L33.3145 66.257Z" fill="#002FE6" fill-opacity="0.3"/>
</g>
</svg>
