<svg width="40" height="40" viewBox="0 0 40 40" fill="none" xmlns="http://www.w3.org/2000/svg">
<g id="slack">
<path id="vector" d="M35.7503 18.4994C37.8212 18.4994 39.5 16.8206 39.5 14.7497C39.5 12.6788 37.8211 11 35.7502 11C33.6791 11 32 12.6789 32 14.75V18.4994H35.7503ZM25.25 18.4994C27.3211 18.4994 29 16.8204 29 14.7494V4.25C29 2.17893 27.3211 0.5 25.25 0.5C23.1789 0.5 21.5 2.17893 21.5 4.25V14.7494C21.5 16.8204 23.1789 18.4994 25.25 18.4994Z" fill="#2EB67D"/>
<path id="vector_2" d="M4.24968 21.5006C2.17879 21.5006 0.500002 23.1794 0.500002 25.2503C0.500002 27.3212 2.17895 29 4.24984 29C6.32091 29 8 27.3211 8 25.25V21.5006H4.24968ZM14.75 21.5006C12.6789 21.5006 11 23.1796 11 25.2506V35.75C11 37.8211 12.6789 39.5 14.75 39.5C16.8211 39.5 18.5 37.8211 18.5 35.75V25.2506C18.5 23.1796 16.8211 21.5006 14.75 21.5006Z" fill="#E01E5A"/>
<path id="vector_3" d="M21.5002 35.7503C21.5002 37.8212 23.1789 39.5 25.2498 39.5C27.3207 39.5 28.9995 37.8211 28.9995 35.7502C28.9995 33.6791 27.3206 32 25.2495 32L21.5002 32L21.5002 35.7503ZM21.5002 25.25C21.5002 27.3211 23.1791 29 25.2502 29L35.7495 29C37.8206 29 39.4995 27.3211 39.4995 25.25C39.4995 23.1789 37.8206 21.5 35.7495 21.5L25.2502 21.5C23.1791 21.5 21.5002 23.1789 21.5002 25.25Z" fill="#ECB22E"/>
<path id="vector_4" d="M18.4998 4.24968C18.4998 2.17879 16.8211 0.500001 14.7502 0.500001C12.6793 0.500001 11.0005 2.17895 11.0005 4.24984C11.0005 6.32091 12.6794 8 14.7505 8L18.4998 8L18.4998 4.24968ZM18.4998 14.75C18.4998 12.6789 16.8209 11 14.7498 11L4.25049 11C2.17942 11 0.500489 12.6789 0.500488 14.75C0.500488 16.8211 2.17942 18.5 4.25049 18.5L14.7498 18.5C16.8209 18.5 18.4998 16.8211 18.4998 14.75Z" fill="#36C5F0"/>
</g>
</svg>
