<svg width="24" height="31" viewBox="0 0 24 31" fill="none" xmlns="http://www.w3.org/2000/svg">
<g opacity="0.7">
<path d="M10.0609 14.5477L3.08984 9.19519V3.33574L10.0666 8.72107L19.9572 0.893555V6.97069L10.0609 14.5477Z" fill="#29D19E" fill-opacity="0.5"/>
<path d="M23.0944 16.0519C23.2129 16.0515 23.3303 16.0756 23.4399 16.1229C23.5495 16.1702 23.6492 16.2397 23.7333 16.3275C23.8173 16.4153 23.8841 16.5196 23.9298 16.6345C23.9755 16.7494 23.9992 16.8726 23.9995 16.9971V19.0248C23.9995 19.5289 23.8092 20.0123 23.4704 20.369C23.1315 20.7257 22.6718 20.9265 22.1922 20.9273H15.5985C15.4797 20.9273 15.3622 20.9519 15.2525 20.9998C15.1429 21.0476 15.0433 21.1177 14.9595 21.2061C14.8757 21.2944 14.8093 21.3993 14.7641 21.5147C14.7189 21.6301 14.6959 21.7537 14.6962 21.8785V29.7478C14.6962 29.8726 14.6728 29.9961 14.6273 30.1113C14.5818 30.2266 14.515 30.3313 14.431 30.4193C14.3469 30.5074 14.2471 30.5772 14.1373 30.6247C14.0275 30.6722 13.9099 30.6964 13.7911 30.696H11.859C11.3794 30.696 10.9194 30.496 10.58 30.1399C10.2406 29.7837 10.0496 29.3006 10.0488 28.7965V16.9971C10.0488 16.7448 10.1442 16.5029 10.3139 16.3245C10.4837 16.1461 10.7139 16.0459 10.9539 16.0459L23.0944 16.0519Z" fill="#002FE6" fill-opacity="0.5"/>
<path d="M7.61686 16.0508C7.85592 16.0508 8.08527 16.1502 8.25485 16.3273C8.42442 16.5044 8.52044 16.7449 8.52193 16.9961V19.0238C8.52193 19.5284 8.33122 20.0123 7.99175 20.369C7.65228 20.7258 7.19186 20.9263 6.71178 20.9263H1.67852C1.43897 20.9263 1.20918 20.8264 1.03953 20.6487C0.869876 20.471 0.774188 20.2298 0.773438 19.978L0.773438 17.9503C0.773438 17.4457 0.96415 16.9618 1.30362 16.6051C1.64309 16.2483 2.10351 16.0479 2.5836 16.0479L7.61686 16.0508Z" fill="#002FE6" fill-opacity="0.5"/>
</g>
</svg>
