<svg width="40" height="40" viewBox="0 0 40 40" fill="none" xmlns="http://www.w3.org/2000/svg">
<rect width="40" height="40" rx="20" fill="#E8EDFC"/>
<path opacity="0.5" d="M14.7176 19.0804C14.3449 16.88 14.6236 13.809 16.8926 12.6804C17.8629 12.2416 18.9229 12.037 19.9869 12.0833C23.2219 12.2242 26.4275 14.7508 24.6343 18.2138L24.5762 18.3881M17.9176 25.8333C18.3052 26.3922 18.5329 27.0463 18.5759 27.725M22.957 19.2917C22.9028 19.1123 22.9028 18.921 22.957 18.7417C23.0265 18.5856 23.1357 18.4506 23.2737 18.35C23.3995 18.2563 23.5447 18.192 23.6986 18.1618C23.8525 18.1316 24.0112 18.1362 24.163 18.1754C24.3149 18.2146 24.4561 18.2873 24.5762 18.3881M24.5762 18.3881C24.6963 18.489 24.7922 18.6155 24.857 18.7583C24.9519 18.9795 25.0009 19.2177 25.0009 19.4583C25.0009 19.699 24.9519 19.9372 24.857 20.1583C24.757 20.3583 24.607 20.5167 24.4904 20.7083C24.2987 21.025 24.232 21.4083 24.057 21.7417C24.0011 21.8667 23.908 21.9714 23.7904 22.0417C23.69 22.0923 23.5753 22.107 23.4654 22.0833M23.4654 22.0833C23.3218 22.0565 23.1911 21.9832 23.0932 21.8748C22.9954 21.7664 22.9358 21.6289 22.9237 21.4833M23.4654 22.0833C23.4654 22.0833 23.3843 22.2252 23.3843 22.4417C23.3811 23.2262 23.659 23.986 24.1676 24.5833" stroke="#0024B2" stroke-miterlimit="10" stroke-linecap="round"/>
<path d="M21.8661 19.0918C21.4049 19.7395 20.7146 20.2299 19.9434 20.4314M22.1744 22.2918C21.9248 22.6941 21.3246 23.3335 20.8014 23.3335M19.9434 20.4314C19.8137 20.2652 19.6157 20.1478 19.3577 20.1085C18.5827 19.9001 17.7744 20.0168 16.9911 19.9001C16.2494 19.7897 16.066 19.1668 15.416 19.1668C14.9994 19.1668 14.2264 19.4267 14.2077 19.6335C13.9599 21.5702 14.2095 25.0543 16.4911 25.8335C17.1999 26.0755 17.9299 25.8203 18.5744 25.5001C19.3677 25.1516 20.7741 24.4539 20.8327 23.4418C20.8314 23.404 20.8202 23.3679 20.8014 23.3335M19.9434 20.4314C20.1185 20.656 20.1689 20.9695 20.0744 21.3001C19.9875 21.75 19.6789 22.6737 20.2244 22.9335C20.3791 23.0108 20.6999 23.1475 20.8014 23.3335" stroke="#0024B2" stroke-miterlimit="10" stroke-linecap="round"/>
<path d="M14.4746 20.7C15.7861 21.3945 17.305 21.5899 18.7496 21.25" stroke="#0024B2" stroke-miterlimit="10" stroke-linecap="round"/>
<path d="M14.582 22.0833C15.8936 22.7778 17.4124 22.9732 18.857 22.6333" stroke="#0024B2" stroke-miterlimit="10" stroke-linecap="round"/>
<path d="M14.8906 23.7773C15.8187 24.2688 16.8934 24.407 17.9156 24.1665" stroke="#0024B2" stroke-miterlimit="10" stroke-linecap="round"/>
</svg>
