<svg width="48" height="48" viewBox="0 0 48 48" fill="none" xmlns="http://www.w3.org/2000/svg">
<g id="zapier">
<path id="zapier_2" d="M28.4327 28.4431C25.5832 29.5153 22.3902 29.5173 19.5406 28.4437C18.467 25.5974 18.4668 22.4049 19.539 19.5581C22.3878 18.484 25.584 18.4838 28.4328 19.5579C29.506 22.4039 29.5056 25.5971 28.4327 28.4431ZM44.708 20.5003H32.442L41.1149 11.8324C39.7538 9.92163 38.0734 8.24312 36.1614 6.88281L27.4879 15.5507V3.29263C25.173 2.90346 22.799 2.90406 20.4841 3.29263V15.5507L11.8106 6.88281C9.89908 8.2422 8.21816 9.92302 6.85693 11.8324L15.5311 20.5003H3.26525C2.96247 22.8831 2.8641 25.1224 3.26525 27.5002H15.5313L6.8571 36.1681C8.22161 38.0818 9.8957 39.7548 11.8106 41.1184L20.4841 32.4498V44.7086C22.7992 45.0963 25.1726 45.0965 27.4877 44.7086V32.4498L36.1621 41.1184C38.0749 39.7567 39.7523 38.0796 41.1149 36.1681L32.4407 27.5002H44.708C45.0973 25.1888 45.0973 22.8117 44.708 20.5003Z" fill="#FF4A00"/>
</g>
</svg>
