<svg width="20" height="20" viewBox="0 0 20 20" fill="none" xmlns="http://www.w3.org/2000/svg">
<g clip-path="url(#clip0_155_22523)">
<path d="M10 20C15.5228 20 20 15.5228 20 10C20 4.47715 15.5228 0 10 0C4.47715 0 0 4.47715 0 10C0 15.5228 4.47715 20 10 20Z" fill="#6DA544"/>
<path d="M5.65234 11.9563C5.65234 12.6766 6.23633 13.2606 6.95668 13.2606H10.8697C10.8697 13.8609 11.3564 14.3476 11.9567 14.3476H13.261C13.8613 14.3476 14.348 13.8609 14.348 13.2606V11.9563H5.65234Z" fill="#F0F0F0"/>
<path d="M14.4555 5.65259V8.69606C14.4555 9.17555 14.0654 9.56563 13.5859 9.56563V10.87C14.7846 10.87 15.7598 9.89473 15.7598 8.69606V5.65259H14.4555Z" fill="#F0F0F0"/>
<path d="M5.10785 8.69582C5.10785 9.17531 4.71777 9.56538 4.23828 9.56538V10.8697C5.43699 10.8697 6.41219 9.89448 6.41219 8.69582V5.65234H5.10785V8.69582Z" fill="#F0F0F0"/>
<path d="M13.8043 5.65259H12.5V8.69606H13.8043V5.65259Z" fill="#F0F0F0"/>
<path d="M10.5407 7.39173C10.5407 7.51161 10.4432 7.60911 10.3234 7.60911C10.2035 7.60911 10.106 7.51157 10.106 7.39173V5.65259H8.80164V7.39173C8.80164 7.51161 8.7041 7.60911 8.58426 7.60911C8.46442 7.60911 8.36688 7.51157 8.36688 7.39173V5.65259H7.0625V7.39173C7.0625 8.23083 7.74516 8.91348 8.58426 8.91348C8.90743 8.91348 9.20711 8.81192 9.45383 8.63942C9.70051 8.81188 10.0002 8.91348 10.3234 8.91348C10.3885 8.91348 10.4525 8.90891 10.5154 8.90091C10.423 9.28173 10.08 9.56563 9.67122 9.56563V10.87C10.8699 10.87 11.8451 9.89473 11.8451 8.69606V7.39173V5.65259H10.5408V7.39173H10.5407Z" fill="#F0F0F0"/>
<path d="M9.01902 9.56519H7.0625V10.8695H9.01902V9.56519Z" fill="#F0F0F0"/>
</g>
<defs>
<clipPath id="clip0_155_22523">
<rect width="20" height="20" fill="white"/>
</clipPath>
</defs>
</svg>
