<svg width="28" height="42" viewBox="0 0 28 42" fill="none" xmlns="http://www.w3.org/2000/svg">
<g id="figma">
<path id="vector" fill-rule="evenodd" clip-rule="evenodd" d="M14 21C14 17.2721 17.0221 14.25 20.75 14.25C24.4779 14.25 27.5 17.2721 27.5 21C27.5 24.7279 24.4779 27.75 20.75 27.75C17.0221 27.75 14 24.7279 14 21Z" fill="#1ABCFE"/>
<path id="vector_2" fill-rule="evenodd" clip-rule="evenodd" d="M0.5 34.5C0.5 30.7721 3.52208 27.75 7.25 27.75H14V34.5C14 38.2279 10.9779 41.25 7.25 41.25C3.52208 41.25 0.5 38.2279 0.5 34.5Z" fill="#0ACF83"/>
<path id="vector_3" fill-rule="evenodd" clip-rule="evenodd" d="M14 0.75V14.25H20.75C24.4779 14.25 27.5 11.2279 27.5 7.5C27.5 3.77208 24.4779 0.75 20.75 0.75H14Z" fill="#FF7262"/>
<path id="vector_4" fill-rule="evenodd" clip-rule="evenodd" d="M0.5 7.5C0.5 11.2279 3.52208 14.25 7.25 14.25H14V0.75H7.25C3.52208 0.75 0.5 3.77208 0.5 7.5Z" fill="#F24E1E"/>
<path id="vector_5" fill-rule="evenodd" clip-rule="evenodd" d="M0.5 21C0.5 24.7279 3.52208 27.75 7.25 27.75H14V14.25H7.25C3.52208 14.25 0.5 17.2721 0.5 21Z" fill="#A259FF"/>
</g>
</svg>
