<svg width="40" height="40" viewBox="0 0 40 40" fill="none" xmlns="http://www.w3.org/2000/svg">
<rect width="40" height="40" rx="20" fill="#C4EDC4" fill-opacity="0.5"/>
<g clip-path="url(#clip0_155_20140)">
<path d="M17.0827 22.2223C17.0827 23.2962 17.9532 24.1667 19.0271 24.1667H20.8327C21.9833 24.1667 22.916 23.234 22.916 22.0834C22.916 20.9328 21.9833 20.0001 20.8327 20.0001H19.166C18.0154 20.0001 17.0827 19.0673 17.0827 17.9167C17.0827 16.7662 18.0154 15.8334 19.166 15.8334H20.9716C22.0455 15.8334 22.916 16.704 22.916 17.7779M19.9993 14.5834V15.8334M19.9993 24.1667V25.4167M28.3327 20.0001C28.3327 24.6025 24.6017 28.3334 19.9993 28.3334C15.397 28.3334 11.666 24.6025 11.666 20.0001C11.666 15.3977 15.397 11.6667 19.9993 11.6667C24.6017 11.6667 28.3327 15.3977 28.3327 20.0001Z" stroke="#034A4A" stroke-width="1.66667" stroke-linecap="round" stroke-linejoin="round"/>
</g>
<defs>
<clipPath id="clip0_155_20140">
<rect width="20" height="20" fill="white" transform="translate(10 10)"/>
</clipPath>
</defs>
</svg>
