<svg width="40" height="40" viewBox="0 0 40 40" fill="none" xmlns="http://www.w3.org/2000/svg">
<rect width="40" height="40" rx="20" fill="#E5F2F7"/>
<path d="M15.834 26.7501C15.834 26.0137 16.4309 25.4167 17.1673 25.4167H22.834C23.5704 25.4167 24.1673 26.0137 24.1673 26.7501V26.7501C24.1673 26.9342 24.0181 27.0834 23.834 27.0834H16.1673C15.9832 27.0834 15.834 26.9342 15.834 26.7501V26.7501Z" stroke="#034A4A"/>
<path d="M17.4573 22.5001C17.4573 22.5001 18.5932 23.3514 19.2813 23.493C19.8944 23.6192 20.53 23.5817 21.124 23.3844C21.7181 23.1871 22.2498 22.8368 22.6656 22.3689C23.0814 21.901 23.3667 21.3319 23.4929 20.7187C23.619 20.1056 23.5816 19.47 23.3843 18.876C23.2897 18.5914 23.1601 18.3212 22.9993 18.0711L22.9166 17.9167M15.6699 22.5001C15.6699 22.5001 16.2766 23.3802 16.6786 23.7375C17.3347 24.3205 18.1326 24.7206 18.9923 24.8975C19.852 25.0744 20.7431 25.0218 21.576 24.7452C22.4089 24.4685 23.1544 23.9775 23.7374 23.3214C24.3204 22.6653 24.7205 21.8674 24.8974 21.0077C25.0742 20.148 25.0217 19.2569 24.745 18.424C24.5999 17.9869 24.3957 17.5739 24.1396 17.1959L24.0782 17.1294M22.9166 17.9167C23.4435 17.9167 23.8943 17.5907 24.0782 17.1294M22.9166 17.9167C22.4763 17.9167 22.0892 17.6891 21.8665 17.345M24.0782 17.1294C24.1353 16.9863 24.1666 16.8302 24.1666 16.6667C24.1666 16.3447 24.0448 16.0511 23.8448 15.8295M21.8665 17.345C21.74 17.1497 21.6666 16.9168 21.6666 16.6667C21.6666 15.9764 22.2263 15.4167 22.9166 15.4167C23.2849 15.4167 23.6161 15.576 23.8448 15.8295M21.8665 17.345L19.4471 19.1985C19.2145 19.3767 18.8918 19.3187 18.7136 19.0861L17.6643 17.7438C17.5786 17.6319 17.5357 17.5759 17.5084 17.5228C17.3811 17.2754 17.4209 16.9749 17.6082 16.7692C17.6484 16.725 17.7044 16.6821 17.8162 16.5964L21.9772 13.4088C22.371 13.1071 22.5679 12.9562 22.7827 12.9498C22.8547 12.9476 22.9267 12.9571 22.9957 12.978C23.2013 13.0401 23.3522 13.237 23.6539 13.6309L24.1666 14.3002C24.366 14.5604 24.4657 14.6905 24.4989 14.8266C24.5385 14.9887 24.5158 15.1598 24.4354 15.306C24.3679 15.4288 24.2378 15.5284 23.9775 15.7278L23.8448 15.8295" stroke="#034A4A"/>
<path d="M15.416 22.5H18.7493" stroke="#034A4A" stroke-linecap="round"/>
<path opacity="0.5" d="M23.7185 13.5778C23.5606 13.3716 23.6274 13.0988 23.828 12.9528C24.1298 12.7332 24.5407 12.8138 24.7622 13.103L24.9624 13.3643C25.184 13.6535 25.1549 14.0712 24.8642 14.3054C24.6695 14.4623 24.3931 14.4582 24.2323 14.2484L23.9754 13.9131L23.7185 13.5778Z" stroke="#034A4A"/>
<path opacity="0.5" d="M17.8608 19.7394L17.8608 19.7394L18.7142 19.086L17.6648 17.7437L16.8222 18.3839L16.8222 18.3839C16.6222 18.5371 16.5222 18.6137 16.4658 18.7052C16.3785 18.8467 16.3557 19.0187 16.4032 19.178C16.4339 19.2809 16.5105 19.381 16.6637 19.581L16.6637 19.581C16.817 19.781 16.8936 19.881 16.985 19.9374C17.1265 20.0247 17.2986 20.0474 17.4579 20C17.5608 19.9693 17.6608 19.8927 17.8608 19.7394Z" stroke="#034A4A"/>
</svg>
