<svg width="40" height="40" viewBox="0 0 40 40" fill="none" xmlns="http://www.w3.org/2000/svg">
<rect width="40" height="40" rx="20" fill="#FCEDB0"/>
<path d="M15 16.6667C13.75 16.6667 13.75 18.3334 15 18.3334L16.6671 18.3334C17.1273 18.3334 17.5 18.7038 17.5 19.1641V27.0834C17.5 28.3334 19.1667 28.3334 19.1667 27.0834C19.1667 25.8334 19.1667 23.3334 20 23.3334C20.8333 23.3334 20.8333 25.8334 20.8333 27.0834C20.8333 28.3334 22.5 28.3334 22.5 27.0834V19.1667C22.5 18.7065 22.8731 18.3334 23.3333 18.3334H25C26.25 18.3334 26.25 16.6667 25 16.6667H15Z" stroke="#12215C" stroke-linecap="round"/>
<path opacity="0.5" d="M21.6673 13.7499C21.6673 14.6704 20.9211 15.4166 20.0007 15.4166C19.0802 15.4166 18.334 14.6704 18.334 13.7499C18.334 12.8294 19.0802 12.0833 20.0007 12.0833C20.9211 12.0833 21.6673 12.8294 21.6673 13.7499Z" stroke="#12215C"/>
</svg>
